<svg
  class="icon"
  style="
    width: 1em;
    height: 1em;
    vertical-align: middle;
    fill: currentColor;
    overflow: hidden;
  "
  viewBox="-64 -64 1152 1152"
  version="1.1"
  xmlns="http://www.w3.org/2000/svg"
  p-id="5193">
  <path
    d="M977.236713 468.573091a46.545455 46.545455 0 0 1-46.545455-46.545455v-4.096h-10.472727a419.886545 419.886545 0 1 0-13.451636 232.727273h3.258181v-0.232727a46.545455 46.545455 0 1 1 93.090909 0v0.232727h1.512728c-0.325818 1.210182-0.814545 2.327273-1.163637 3.560727v0.535273a46.08 46.08 0 0 1-9.309091 27.531636 511.720727 511.720727 0 1 1-63.790545-464.965818l-0.162909-125.44a46.545455 46.545455 0 1 1 93.090909 0l0.442182 330.146909a46.545455 46.545455 0 0 1-46.498909 46.545455z"
    fill="#0090FF"
    p-id="5194"></path>
</svg>
